<svg xmlns="http://www.w3.org/2000/svg" width="256" height="341.333" preserveAspectRatio="xMidYMid meet" version="1.0" viewBox="0 0 192 256"><path d="M-3.22 181.228c-7.639.936-14.722 4.888-19.376 10.83-4.098 5.21-6.176 12.556-5.415 19.025 1.288 11.006 10.8 26.753 25.553 42.354L0 256.013l3.717-4.04c13.054-14.283 20.928-26.811 23.65-37.729.585-2.283.644-3.132.527-6.878-.176-4.859-.849-7.552-2.898-11.357-5.386-10.069-17.035-16.186-28.216-14.781zm6.528 13.405c5.503 1.288 9.806 5.62 10.918 10.918.439 2.195.175 5.65-.615 7.669-1.61 4.156-5.766 7.786-10.01 8.78-2.166.498-6.118.352-8.225-.292-2.254-.702-5.035-2.488-6.527-4.186-.586-.673-1.552-2.224-2.108-3.424-.966-1.961-1.083-2.488-1.17-5.005-.176-4.361.848-7.26 3.687-10.274 3.542-3.805 8.899-5.386 14.05-4.186z" fill="#000" stroke="none"/></svg>
